<svg version="1.1" id="Layer_1" xmlns="http://www.w3.org/2000/svg" xmlns:xlink="http://www.w3.org/1999/xlink" x="0px" y="0px"
	 width="100%" viewBox="0 0 1024 1024" enable-background="new 0 0 1024 1024" xml:space="preserve">
<path fill="#000000" opacity="1.000000" stroke="none"
	d="
M473.000000,1025.000000
	C315.333344,1025.000000 158.166672,1025.000000 1.000000,1025.000000
	C1.000000,683.666687 1.000000,342.333344 1.000000,1.000000
	C342.333344,1.000000 683.666687,1.000000 1025.000000,1.000000
	C1025.000000,342.333344 1025.000000,683.666687 1025.000000,1025.000000
	C841.166687,1025.000000 657.333313,1025.000000 473.000000,1025.000000
M373.506775,512.000000
	C386.004852,511.999969 398.504639,512.098755 410.999115,511.886658
	C412.744751,511.857025 414.837646,510.643188 416.053925,509.319641
	C416.764526,508.546356 416.633881,505.770905 415.859467,505.128418
	C414.428040,503.940857 412.250488,503.105255 410.374451,503.087128
	C394.544983,502.934357 378.712280,502.899353 362.883270,503.074829
	C359.191925,503.115753 355.470215,503.903198 351.832947,504.678040
	C341.213837,506.940186 333.322815,513.692444 326.983002,521.815491
	C320.791260,529.748962 317.072266,538.986877 316.902954,549.502441
	C316.737518,559.775330 319.386139,569.133789 325.240326,577.317810
	C327.638153,580.669922 326.728394,582.116760 324.336639,584.189392
	C317.929291,589.741760 313.015961,596.592468 311.297974,604.775879
	C309.862427,611.613770 310.002472,618.861633 310.087463,625.920227
	C310.201263,635.375610 314.713867,643.225647 320.719116,650.157837
	C330.647980,661.619446 343.724915,665.914307 358.485474,665.991882
	C366.983978,666.036560 375.482910,666.000061 383.981628,666.000000
	C392.813629,665.999878 401.647400,666.100586 410.476654,665.944397
	C413.538574,665.890259 417.004761,665.230957 416.869781,661.197754
	C416.744537,657.455200 413.925049,656.895508 410.509094,656.927063
	C393.346466,657.086121 376.181335,656.945801 359.017578,657.021240
	C349.372681,657.063599 340.330994,655.187561 332.700958,648.942444
	C322.626526,640.696655 317.515350,629.974060 318.079010,616.932068
	C318.395508,609.608276 320.967529,602.888672 325.003357,596.659302
	C330.360992,588.389587 334.341766,587.155090 343.152557,591.608704
	C344.290680,592.184021 345.500153,592.741943 346.739014,592.972778
	C352.441986,594.035828 358.167328,595.776672 363.884186,595.774902
	C371.911255,595.772461 380.342651,598.069031 387.921295,593.600464
	C387.904968,588.514526 387.100403,587.191223 383.697021,587.023987
	C375.450134,586.618530 367.178986,586.563049 358.954346,585.906311
	C354.638702,585.561707 350.400391,584.248901 346.127136,583.373352
	C346.214874,582.582275 346.302612,581.791138 346.390381,581.000000
	C352.442139,581.000000 358.493896,581.000183 364.545654,580.999939
	C370.711395,580.999695 376.879059,581.089600 383.042053,580.959351
	C386.001648,580.896790 388.297485,579.079651 387.776245,576.180054
	C387.488708,574.580505 384.913208,572.151245 383.438721,572.199951
	C370.105682,572.640991 356.688416,570.399231 343.406189,573.707458
	C339.925293,574.574463 335.620514,576.911377 332.428619,572.006592
	C319.264618,551.778687 326.802734,528.831299 346.053253,516.996765
	C354.231415,511.969116 363.315094,511.672852 373.506775,512.000000
M300.442230,362.955994
	C304.613892,368.181854 309.009827,373.249634 312.855621,378.705200
	C314.585846,381.159729 316.115997,383.255981 318.982941,381.367310
	C321.904358,379.442749 321.976196,376.326324 319.995422,373.589020
	C312.604401,363.375305 305.157990,353.199707 297.589630,343.116943
	C290.485046,333.652039 283.227112,324.301605 275.984100,314.941467
	C271.707520,309.414886 267.479584,303.835266 262.880890,298.585114
	C261.845673,297.403198 259.137268,296.769592 257.607147,297.232483
	C256.410797,297.594360 255.771484,300.009125 255.040894,301.584198
	C254.786560,302.132507 255.000031,302.897827 255.000031,303.564056
	C255.000015,353.197449 254.999954,402.830811 255.000351,452.464203
	C255.000351,453.463501 254.659744,454.655273 255.085022,455.419434
	C255.821686,456.743164 256.839508,458.341705 258.109344,458.800018
	C259.112671,459.162170 261.383087,458.341431 261.841492,457.422638
	C262.949829,455.201172 263.906921,452.616852 263.913849,450.175964
	C264.033447,407.871338 264.000000,365.566284 264.000000,323.261322
	C264.000000,321.532745 264.000000,319.804199 264.000000,318.075623
	C264.595154,317.803314 265.190308,317.531036 265.785431,317.258728
	C277.488586,332.057678 288.782471,347.183716 300.442230,362.955994
M349.555206,343.965149
	C356.864868,334.443817 364.174530,324.922516 371.484161,315.401184
	C371.989441,315.674255 372.494720,315.947327 373.000000,316.220398
	C373.000000,317.987762 373.000000,319.755127 373.000000,321.522491
	C373.000000,365.501434 373.035217,409.480469 372.933807,453.459167
	C372.925598,457.016602 373.628296,459.144836 377.620636,459.013794
	C381.487946,458.886841 382.029510,456.467834 382.027069,453.282166
	C381.988495,403.139557 381.978882,352.996857 382.052704,302.854340
	C382.057098,299.862061 381.437683,297.211456 378.361847,296.954865
	C376.408173,296.791809 373.643372,297.853333 372.384460,299.335724
	C367.028625,305.642212 362.092438,312.305511 357.015381,318.848175
	C350.551331,327.178162 344.105682,335.522461 337.639587,343.850861
	C334.056152,348.466400 330.153290,352.875275 327.033417,357.783478
	C326.127319,359.208984 327.428925,362.037872 327.718506,364.223450
	C329.687500,363.770752 332.376465,363.979462 333.503113,362.752991
	C338.908600,356.868347 343.891602,350.595642 349.555206,343.965149
M641.557495,393.048431
	C643.371643,399.672180 646.377441,406.239319 646.695740,412.934174
	C647.086121,421.145325 644.393921,429.249603 638.691284,435.661682
	C631.251770,444.026581 622.805664,450.326141 610.636230,450.092773
	C592.145203,449.738220 573.642456,449.989319 555.144653,450.009918
	C551.808960,450.013611 548.346924,450.991577 548.196899,454.644562
	C548.036987,458.538208 551.277893,459.096130 554.810364,459.069275
	C573.973572,458.923340 593.139343,459.091309 612.302185,458.920105
	C615.971375,458.887329 619.814087,458.346161 623.265442,457.145020
	C643.924561,449.955170 655.101624,434.295044 655.818726,413.301819
	C656.363403,397.354706 649.441040,384.162842 636.738525,374.349457
	C630.245056,369.332855 622.735718,366.317474 614.501343,366.076202
	C603.845093,365.763947 593.172607,366.040894 582.507629,365.973785
	C579.520264,365.955017 577.004639,366.575012 577.069214,370.082520
	C577.134033,373.600067 579.732178,373.981476 582.674011,374.044250
	C592.921448,374.263031 603.176880,374.459747 613.406860,375.052612
	C625.725220,375.766479 634.375671,382.621582 641.557495,393.048431
M564.016602,309.474243
	C551.350159,320.911926 546.619934,334.885071 548.843933,351.938904
	C551.205750,370.049194 562.071777,380.720947 577.870911,386.822845
	C589.179382,391.190308 601.481323,390.010223 613.445251,389.941010
	C614.495361,389.934967 615.892090,389.474640 616.509583,388.719696
	C617.523865,387.479584 618.908081,385.528503 618.532959,384.419617
	C618.052368,382.998901 616.055542,381.267456 614.587158,381.142975
	C607.028992,380.502289 599.433777,380.207489 591.845947,380.023468
	C568.449951,379.455963 551.288330,357.929810 558.751465,333.664520
	C563.256226,319.018127 578.565857,305.675507 596.476929,305.953003
	C611.305237,306.182709 626.141541,305.877716 640.970520,306.084198
	C644.776489,306.137207 647.438904,304.624115 647.542175,301.241699
	C647.663879,297.255371 644.198730,296.949341 640.880371,296.965668
	C625.215698,297.042694 609.546021,296.772858 593.886841,297.076660
	C582.715454,297.293335 572.686707,300.989319 564.016602,309.474243
M478.373871,651.968689
	C497.138062,636.840027 504.070557,616.575867 504.014740,593.208496
	C503.951019,566.543213 504.001801,539.877625 503.995239,513.212158
	C503.994873,511.716461 504.325165,510.060455 503.803223,508.759216
	C502.791809,506.237701 502.650787,502.389954 498.424042,503.065247
	C494.611237,503.674438 494.986481,506.823364 494.988403,509.673553
	C495.007538,538.172241 495.110321,566.671570 494.953278,595.169434
	C494.875244,609.322937 492.084961,622.857910 482.942200,634.218567
	C472.469177,647.232239 459.421051,655.674622 442.096191,656.040039
	C440.361420,656.076599 438.288910,656.195801 437.006805,657.138367
	C435.686554,658.109253 434.107666,660.517883 434.510437,661.605469
	C435.057098,663.081543 437.334412,664.741760 438.950897,664.829956
	C442.670502,665.033020 446.433746,664.236328 450.189331,664.019958
	C460.833527,663.406982 469.534393,658.412903 478.373871,651.968689
M714.968994,625.349487
	C708.450806,639.662292 696.863525,648.377563 682.579834,653.577148
	C677.674316,655.362854 672.094910,655.452637 666.788452,655.926514
	C663.368469,656.231873 661.081299,657.497742 661.073669,661.018127
	C661.066040,664.530579 663.645874,665.221863 666.608521,664.998230
	C671.515869,664.627869 676.665588,665.076355 681.286316,663.722595
	C699.602783,658.356445 713.774902,647.230530 722.757935,630.373596
	C728.567322,619.472046 729.847534,607.223633 729.956055,595.000854
	C730.123169,576.177795 730.000000,557.352112 730.000000,538.527588
	C730.000000,529.031982 730.070435,519.535645 729.961060,510.041290
	C729.923706,506.799011 729.514282,503.180847 725.210083,503.092529
	C720.565247,502.997192 720.994263,506.703308 720.995117,509.878204
	C721.003418,540.030823 721.246460,570.186768 720.839417,600.333801
	C720.727417,608.628235 719.629089,617.133728 714.968994,625.349487
M639.046997,606.686523
	C638.753418,615.106750 635.824585,622.676697 631.646606,629.865234
	C623.357727,644.126709 611.123169,652.787720 594.967468,656.073547
	C592.152466,656.646118 589.749817,658.687866 591.222778,661.640808
	C592.047119,663.293213 595.171143,665.083008 596.912292,664.785034
	C608.222351,662.849365 618.415527,658.045105 626.991455,650.427979
	C641.823792,637.253906 648.471802,620.006104 648.849121,600.682190
	C649.424744,571.202087 649.001404,541.702393 648.995117,512.211060
	C648.994873,511.049957 649.145813,509.825378 648.838623,508.740082
	C648.021851,505.854370 647.164001,503.247803 642.968811,503.898499
	C638.897888,504.529846 640.042114,507.322571 640.037964,509.549561
	C639.981506,539.873901 640.007202,570.198364 639.982117,600.522827
	C639.980591,602.326843 639.720581,604.130676 639.046997,606.686523
M529.000000,533.500000
	C528.999939,525.003540 528.907654,516.505493 529.049072,508.011383
	C529.099792,504.965881 528.001709,503.851929 524.975464,503.957611
	C519.373352,504.153229 520.107483,508.535675 520.090027,511.748810
	C519.935059,540.236023 519.942932,568.724731 520.052979,597.212341
	C520.072693,602.287109 520.194214,607.490479 521.285034,612.408997
	C525.138306,629.784424 533.447632,644.526245 548.405212,654.844299
	C555.869080,659.993042 563.944519,664.021790 573.111023,664.821411
	C574.966187,664.983276 578.067200,663.312744 578.745239,661.706604
	C579.862427,659.060303 577.843445,656.490356 574.980652,656.105225
	C566.264404,654.932678 558.874390,651.026184 551.861755,646.014099
	C544.017700,640.407837 538.108826,632.942505 534.405518,624.400269
	C530.005127,614.250000 528.787842,603.177979 528.932068,591.975037
	C529.178589,572.819580 529.000000,553.658630 529.000000,533.500000
M764.000183,589.487976
	C761.662354,595.264221 759.295105,601.028748 756.993164,606.819336
	C752.918335,617.069214 748.924316,627.351318 744.817139,637.588074
	C742.017029,644.567261 738.871643,651.416443 736.323120,658.483337
	C735.455200,660.890259 734.736877,664.641846 738.815491,665.141602
	C740.668945,665.368713 743.488342,664.041443 744.610596,662.501770
	C746.549133,659.842224 747.642395,656.519470 748.849487,653.382324
	C753.611633,641.006958 758.248169,628.583252 762.993591,616.201416
	C766.653320,606.652649 770.327148,597.107910 774.134521,587.617432
	C781.636536,568.917725 789.228516,550.254028 796.798035,531.581421
	C799.804321,524.165466 803.108032,516.852905 805.671265,509.288269
	C806.217896,507.674957 804.138184,505.171692 803.268433,503.078430
	C801.189819,503.988892 797.915100,504.363068 797.227295,505.897156
	C792.856018,515.646179 789.038391,525.644348 785.072388,535.573975
	C781.036377,545.678772 777.034363,555.797058 773.027466,565.913452
	C770.021973,573.501587 767.032349,581.096008 764.000183,589.487976
M427.035858,408.697083
	C427.463684,408.191406 428.058655,407.753326 428.294556,407.170044
	C432.844055,395.921692 437.433624,384.688354 441.847198,373.386475
	C447.649902,358.527435 453.311188,343.613098 459.025574,328.719604
	C462.172455,320.517792 465.262329,312.293793 468.463013,304.113098
	C469.669952,301.028259 469.315308,298.071381 466.114685,297.208374
	C463.226166,296.429596 461.010834,298.024933 459.869781,301.510773
	C457.637909,308.329071 454.690491,314.913239 452.037872,321.593781
	C445.024719,339.256012 437.986603,356.908386 431.004578,374.582947
	C425.192596,389.295654 419.471893,404.044434 413.662292,418.758087
	C409.259125,429.909851 404.657776,440.985443 400.424042,452.200409
	C399.423401,454.851013 398.739105,458.745880 402.978668,459.180756
	C404.838928,459.371521 408.065186,457.246674 408.827118,455.408783
	C415.129456,440.206909 420.999451,424.825806 427.035858,408.697083
M679.438904,441.045380
	C685.958374,424.880341 692.503784,408.725708 698.989746,392.547272
	C705.363403,376.648926 711.719116,360.743073 718.003418,344.809235
	C723.218567,331.586334 728.498962,318.382690 733.290955,305.005890
	C734.087952,302.781006 733.380432,298.158722 731.895081,297.350098
	C728.493469,295.498352 726.295227,298.659027 725.055176,301.705627
	C721.629944,310.120697 718.314758,318.580688 714.979004,327.031982
	C708.636963,343.099579 702.384033,359.202820 695.952942,375.234619
	C691.484497,386.373810 686.687988,397.381256 682.207825,408.515930
	C678.028198,418.903595 674.066101,429.378876 670.021912,439.820862
	C668.348938,444.140442 666.392639,448.387787 665.191895,452.837097
	C664.586304,455.081299 663.807129,458.820404 667.716431,459.067566
	C669.732300,459.195068 672.937256,457.763092 673.765991,456.112457
	C676.041504,451.579987 677.344482,446.559235 679.438904,441.045380
M184.000000,542.564453
	C182.752319,553.002197 186.922379,561.888794 192.077896,570.458496
	C193.948212,573.567444 197.262695,574.059021 199.751862,572.312256
	C200.878693,571.521545 200.340820,567.980164 200.076813,565.743408
	C199.942108,564.602112 198.691757,563.617126 198.034851,562.508667
	C193.102264,554.185547 191.293030,545.178101 193.764236,535.845093
	C197.639603,521.208740 211.162415,513.189758 224.887268,513.058350
	C247.383240,512.842896 269.882874,513.020752 292.380737,512.959351
	C294.113739,512.954651 295.843964,512.117798 297.577576,512.109436
	C301.536438,512.090271 301.024567,509.377502 300.994934,506.890381
	C300.954773,503.522980 298.481628,504.005402 296.354370,504.004395
	C280.022430,503.996521 263.689331,503.880188 247.359009,504.042877
	C236.784210,504.148254 226.015533,503.502411 215.685135,505.259338
	C198.031082,508.261810 184.505569,522.046753 184.000000,542.564453
M264.494446,580.000000
	C248.842163,580.000000 233.189819,579.979431 217.537704,580.031372
	C215.945831,580.036621 214.315689,580.329407 212.771088,580.742249
	C205.357315,582.724304 199.129089,586.234741 193.919678,592.294739
	C188.731506,598.329956 184.576614,604.914673 184.224396,612.525146
	C183.486191,628.476257 184.011383,644.485352 183.992493,660.470642
	C183.987946,664.328796 186.583679,665.881287 189.458298,664.732788
	C191.165207,664.050964 192.792557,660.843262 192.845596,658.730835
	C193.158920,646.250122 193.319870,633.746216 192.872864,621.273743
	C192.628052,614.442627 193.967438,608.370667 197.700577,602.775513
	C203.143265,594.618164 210.046906,588.923462 220.538605,588.976379
	C237.855560,589.063538 255.173416,589.033630 272.490448,588.955566
	C274.554199,588.946289 276.853516,588.778625 278.603577,587.852600
	C280.057037,587.083618 281.996887,584.750183 281.687836,583.719482
	C281.231140,582.196228 279.080750,580.377380 277.458801,580.166382
	C273.528992,579.655212 269.487762,580.000122 264.494446,580.000000
M812.067749,526.020630
	C806.720398,526.194092 804.713562,528.582092 806.421692,532.929993
	C812.496033,548.391418 818.634705,563.827454 824.734924,579.278687
	C829.842041,592.214294 834.929199,605.157837 840.025757,618.097595
	C845.700256,632.504639 851.315857,646.935364 857.097351,661.299316
	C858.343140,664.394470 860.274841,667.081116 864.377686,665.005432
	C867.844299,663.251770 866.799255,660.177490 865.886047,657.825439
	C858.310242,638.312378 850.548340,618.871216 842.791382,599.428833
	C839.592163,591.410034 836.168945,583.479858 833.021912,575.441223
	C827.604309,561.602600 822.379395,547.688477 816.935608,533.860413
	C815.892090,531.209839 814.212524,528.809753 812.067749,526.020630
M505.957153,392.535522
	C505.309052,390.743256 504.710724,388.931091 504.004395,387.162048
	C500.681915,378.840302 497.303711,370.540741 493.994110,362.213898
	C488.793610,349.129639 483.565796,336.055389 478.503387,322.917633
	C477.315674,319.835175 474.859650,319.082123 472.735687,320.343079
	C471.237457,321.232544 469.860016,324.276855 470.226471,325.970001
	C471.130005,330.144592 472.974243,334.134003 474.611908,338.127502
	C477.953278,346.275360 481.558044,354.317810 484.780243,362.511475
	C489.634491,374.855194 494.187561,387.317047 498.991516,399.681000
	C503.919250,412.363678 508.979095,424.995209 514.012268,437.636719
	C516.439514,443.733093 518.673645,449.931732 521.570984,455.799774
	C522.409241,457.497620 525.359314,459.327148 527.140015,459.143616
	C530.983215,458.747467 530.710999,455.372375 529.947815,452.481781
	C529.550293,450.976105 528.585449,449.629883 527.996826,448.163483
	C520.662842,429.893402 513.350952,411.614441 505.957153,392.535522
M760.031311,365.317139
	C757.014954,357.240662 754.093323,349.127136 750.951721,341.099701
	C748.513550,334.869751 745.664062,328.799805 743.265503,322.555786
	C741.982605,319.216125 739.235779,319.225739 737.371643,320.523163
	C735.951660,321.511505 734.732910,324.788055 735.312317,326.343536
	C741.671753,343.415985 748.351196,360.370392 755.045776,377.316528
	C761.977539,394.862946 768.997253,412.374756 776.026855,429.882294
	C779.598877,438.778717 783.145020,447.691193 787.034424,456.449158
	C787.698914,457.945465 790.246338,459.777618 791.547180,459.523834
	C793.189148,459.203430 795.159912,457.106659 795.649841,455.393280
	C796.073914,453.910248 794.700317,451.863464 793.997131,450.115845
	C789.350220,438.566010 784.615784,427.051178 780.013000,415.483887
	C773.454712,399.002106 766.985046,382.485077 760.031311,365.317139
M707.939514,504.434540
	C705.915955,503.956360 703.896973,503.088715 701.867981,503.064606
	C690.549011,502.930206 679.227600,502.999786 667.906982,503.000427
	C667.074585,503.000458 666.201721,502.844208 665.417236,503.039703
	C662.715759,503.712830 660.455078,504.758606 660.974487,508.299316
	C661.416748,511.314240 662.959290,512.119446 665.953796,512.075500
	C678.270630,511.894928 690.591675,512.011047 702.911133,511.994690
	C708.064331,511.987854 709.170532,510.590759 707.939514,504.434540
M444.652893,503.000000
	C443.154602,503.000336 441.643433,502.875092 440.160614,503.026703
	C436.894104,503.360535 434.748322,504.541656 434.907166,508.548950
	C435.066040,512.556152 437.606323,511.997345 440.072113,511.998169
	C452.224976,512.002197 464.380981,511.845947 476.528900,512.091125
	C480.320557,512.167664 482.646881,511.129425 482.954224,507.287933
	C483.303009,502.928040 479.263824,504.097565 477.050873,503.063660
	C476.230713,502.680481 475.082031,503.000092 474.083160,503.000061
	C464.593933,502.999939 455.104706,503.000000 444.652893,503.000000
z"/>
<path fill="#FFFFFF" opacity="1.000000" stroke="none"
	d="
M373.008759,512.000000
	C363.315094,511.672852 354.231415,511.969116 346.053253,516.996765
	C326.802734,528.831299 319.264618,551.778687 332.428619,572.006592
	C335.620514,576.911377 339.925293,574.574463 343.406189,573.707458
	C356.688416,570.399231 370.105682,572.640991 383.438721,572.199951
	C384.913208,572.151245 387.488708,574.580505 387.776245,576.180054
	C388.297485,579.079651 386.001648,580.896790 383.042053,580.959351
	C376.879059,581.089600 370.711395,580.999695 364.545654,580.999939
	C358.493896,581.000183 352.442139,581.000000 346.390381,581.000000
	C346.302612,581.791138 346.214874,582.582275 346.127136,583.373352
	C350.400391,584.248901 354.638702,585.561707 358.954346,585.906311
	C367.178986,586.563049 375.450134,586.618530 383.697021,587.023987
	C387.100403,587.191223 387.904968,588.514526 387.921295,593.600464
	C380.342651,598.069031 371.911255,595.772461 363.884186,595.774902
	C358.167328,595.776672 352.441986,594.035828 346.739014,592.972778
	C345.500153,592.741943 344.290680,592.184021 343.152557,591.608704
	C334.341766,587.155090 330.360992,588.389587 325.003357,596.659302
	C320.967529,602.888672 318.395508,609.608276 318.079010,616.932068
	C317.515350,629.974060 322.626526,640.696655 332.700958,648.942444
	C340.330994,655.187561 349.372681,657.063599 359.017578,657.021240
	C376.181335,656.945801 393.346466,657.086121 410.509094,656.927063
	C413.925049,656.895508 416.744537,657.455200 416.869781,661.197754
	C417.004761,665.230957 413.538574,665.890259 410.476654,665.944397
	C401.647400,666.100586 392.813629,665.999878 383.981628,666.000000
	C375.482910,666.000061 366.983978,666.036560 358.485474,665.991882
	C343.724915,665.914307 330.647980,661.619446 320.719116,650.157837
	C314.713867,643.225647 310.201263,635.375610 310.087463,625.920227
	C310.002472,618.861633 309.862427,611.613770 311.297974,604.775879
	C313.015961,596.592468 317.929291,589.741760 324.336639,584.189392
	C326.728394,582.116760 327.638153,580.669922 325.240326,577.317810
	C319.386139,569.133789 316.737518,559.775330 316.902954,549.502441
	C317.072266,538.986877 320.791260,529.748962 326.983002,521.815491
	C333.322815,513.692444 341.213837,506.940186 351.832947,504.678040
	C355.470215,503.903198 359.191925,503.115753 362.883270,503.074829
	C378.712280,502.899353 394.544983,502.934357 410.374451,503.087128
	C412.250488,503.105255 414.428040,503.940857 415.859467,505.128418
	C416.633881,505.770905 416.764526,508.546356 416.053925,509.319641
	C414.837646,510.643188 412.744751,511.857025 410.999115,511.886658
	C398.504639,512.098755 386.004852,511.999969 373.008759,512.000000
z"/>
<path fill="#FFFFFF" opacity="1.000000" stroke="none"
	d="
M300.236267,362.651276
	C288.782471,347.183716 277.488586,332.057678 265.785431,317.258728
	C265.190308,317.531036 264.595154,317.803314 264.000000,318.075623
	C264.000000,319.804199 264.000000,321.532745 264.000000,323.261322
	C264.000000,365.566284 264.033447,407.871338 263.913849,450.175964
	C263.906921,452.616852 262.949829,455.201172 261.841492,457.422638
	C261.383087,458.341431 259.112671,459.162170 258.109344,458.800018
	C256.839508,458.341705 255.821686,456.743164 255.085022,455.419434
	C254.659744,454.655273 255.000351,453.463501 255.000351,452.464203
	C254.999954,402.830811 255.000015,353.197449 255.000031,303.564056
	C255.000031,302.897827 254.786560,302.132507 255.040894,301.584198
	C255.771484,300.009125 256.410797,297.594360 257.607147,297.232483
	C259.137268,296.769592 261.845673,297.403198 262.880890,298.585114
	C267.479584,303.835266 271.707520,309.414886 275.984100,314.941467
	C283.227112,324.301605 290.485046,333.652039 297.589630,343.116943
	C305.157990,353.199707 312.604401,363.375305 319.995422,373.589020
	C321.976196,376.326324 321.904358,379.442749 318.982941,381.367310
	C316.115997,383.255981 314.585846,381.159729 312.855621,378.705200
	C309.009827,373.249634 304.613892,368.181854 300.236267,362.651276
z"/>
<path fill="#FFFFFF" opacity="1.000000" stroke="none"
	d="
M349.289948,344.212952
	C343.891602,350.595642 338.908600,356.868347 333.503113,362.752991
	C332.376465,363.979462 329.687500,363.770752 327.718506,364.223450
	C327.428925,362.037872 326.127319,359.208984 327.033417,357.783478
	C330.153290,352.875275 334.056152,348.466400 337.639587,343.850861
	C344.105682,335.522461 350.551331,327.178162 357.015381,318.848175
	C362.092438,312.305511 367.028625,305.642212 372.384460,299.335724
	C373.643372,297.853333 376.408173,296.791809 378.361847,296.954865
	C381.437683,297.211456 382.057098,299.862061 382.052704,302.854340
	C381.978882,352.996857 381.988495,403.139557 382.027069,453.282166
	C382.029510,456.467834 381.487946,458.886841 377.620636,459.013794
	C373.628296,459.144836 372.925598,457.016602 372.933807,453.459167
	C373.035217,409.480469 373.000000,365.501434 373.000000,321.522491
	C373.000000,319.755127 373.000000,317.987762 373.000000,316.220398
	C372.494720,315.947327 371.989441,315.674255 371.484161,315.401184
	C364.174530,324.922516 356.864868,334.443817 349.289948,344.212952
z"/>
<path fill="#FFFFFF" opacity="1.000000" stroke="none"
	d="
M641.280884,392.777863
	C634.375671,382.621582 625.725220,375.766479 613.406860,375.052612
	C603.176880,374.459747 592.921448,374.263031 582.674011,374.044250
	C579.732178,373.981476 577.134033,373.600067 577.069214,370.082520
	C577.004639,366.575012 579.520264,365.955017 582.507629,365.973785
	C593.172607,366.040894 603.845093,365.763947 614.501343,366.076202
	C622.735718,366.317474 630.245056,369.332855 636.738525,374.349457
	C649.441040,384.162842 656.363403,397.354706 655.818726,413.301819
	C655.101624,434.295044 643.924561,449.955170 623.265442,457.145020
	C619.814087,458.346161 615.971375,458.887329 612.302185,458.920105
	C593.139343,459.091309 573.973572,458.923340 554.810364,459.069275
	C551.277893,459.096130 548.036987,458.538208 548.196899,454.644562
	C548.346924,450.991577 551.808960,450.013611 555.144653,450.009918
	C573.642456,449.989319 592.145203,449.738220 610.636230,450.092773
	C622.805664,450.326141 631.251770,444.026581 638.691284,435.661682
	C644.393921,429.249603 647.086121,421.145325 646.695740,412.934174
	C646.377441,406.239319 643.371643,399.672180 641.280884,392.777863
z"/>
<path fill="#FFFFFF" opacity="1.000000" stroke="none"
	d="
M564.275269,309.226471
	C572.686707,300.989319 582.715454,297.293335 593.886841,297.076660
	C609.546021,296.772858 625.215698,297.042694 640.880371,296.965668
	C644.198730,296.949341 647.663879,297.255371 647.542175,301.241699
	C647.438904,304.624115 644.776489,306.137207 640.970520,306.084198
	C626.141541,305.877716 611.305237,306.182709 596.476929,305.953003
	C578.565857,305.675507 563.256226,319.018127 558.751465,333.664520
	C551.288330,357.929810 568.449951,379.455963 591.845947,380.023468
	C599.433777,380.207489 607.028992,380.502289 614.587158,381.142975
	C616.055542,381.267456 618.052368,382.998901 618.532959,384.419617
	C618.908081,385.528503 617.523865,387.479584 616.509583,388.719696
	C615.892090,389.474640 614.495361,389.934967 613.445251,389.941010
	C601.481323,390.010223 589.179382,391.190308 577.870911,386.822845
	C562.071777,380.720947 551.205750,370.049194 548.843933,351.938904
	C546.619934,334.885071 551.350159,320.911926 564.275269,309.226471
z"/>
<path fill="#FFFFFF" opacity="1.000000" stroke="none"
	d="
M478.008575,651.999878
	C469.534393,658.412903 460.833527,663.406982 450.189331,664.019958
	C446.433746,664.236328 442.670502,665.033020 438.950897,664.829956
	C437.334412,664.741760 435.057098,663.081543 434.510437,661.605469
	C434.107666,660.517883 435.686554,658.109253 437.006805,657.138367
	C438.288910,656.195801 440.361420,656.076599 442.096191,656.040039
	C459.421051,655.674622 472.469177,647.232239 482.942200,634.218567
	C492.084961,622.857910 494.875244,609.322937 494.953278,595.169434
	C495.110321,566.671570 495.007538,538.172241 494.988403,509.673553
	C494.986481,506.823364 494.611237,503.674438 498.424042,503.065247
	C502.650787,502.389954 502.791809,506.237701 503.803223,508.759216
	C504.325165,510.060455 503.994873,511.716461 503.995239,513.212158
	C504.001801,539.877625 503.951019,566.543213 504.014740,593.208496
	C504.070557,616.575867 497.138062,636.840027 478.008575,651.999878
z"/>
<path fill="#FFFFFF" opacity="1.000000" stroke="none"
	d="
M715.005005,624.961304
	C719.629089,617.133728 720.727417,608.628235 720.839417,600.333801
	C721.246460,570.186768 721.003418,540.030823 720.995117,509.878204
	C720.994263,506.703308 720.565247,502.997192 725.210083,503.092529
	C729.514282,503.180847 729.923706,506.799011 729.961060,510.041290
	C730.070435,519.535645 730.000000,529.031982 730.000000,538.527588
	C730.000000,557.352112 730.123169,576.177795 729.956055,595.000854
	C729.847534,607.223633 728.567322,619.472046 722.757935,630.373596
	C713.774902,647.230530 699.602783,658.356445 681.286316,663.722595
	C676.665588,665.076355 671.515869,664.627869 666.608521,664.998230
	C663.645874,665.221863 661.066040,664.530579 661.073669,661.018127
	C661.081299,657.497742 663.368469,656.231873 666.788452,655.926514
	C672.094910,655.452637 677.674316,655.362854 682.579834,653.577148
	C696.863525,648.377563 708.450806,639.662292 715.005005,624.961304
z"/>
<path fill="#FFFFFF" opacity="1.000000" stroke="none"
	d="
M639.313965,606.310547
	C639.720581,604.130676 639.980591,602.326843 639.982117,600.522827
	C640.007202,570.198364 639.981506,539.873901 640.037964,509.549561
	C640.042114,507.322571 638.897888,504.529846 642.968811,503.898499
	C647.164001,503.247803 648.021851,505.854370 648.838623,508.740082
	C649.145813,509.825378 648.994873,511.049957 648.995117,512.211060
	C649.001404,541.702393 649.424744,571.202087 648.849121,600.682190
	C648.471802,620.006104 641.823792,637.253906 626.991455,650.427979
	C618.415527,658.045105 608.222351,662.849365 596.912292,664.785034
	C595.171143,665.083008 592.047119,663.293213 591.222778,661.640808
	C589.749817,658.687866 592.152466,656.646118 594.967468,656.073547
	C611.123169,652.787720 623.357727,644.126709 631.646606,629.865234
	C635.824585,622.676697 638.753418,615.106750 639.313965,606.310547
z"/>
<path fill="#FFFFFF" opacity="1.000000" stroke="none"
	d="
M529.000000,534.000000
	C529.000000,553.658630 529.178589,572.819580 528.932068,591.975037
	C528.787842,603.177979 530.005127,614.250000 534.405518,624.400269
	C538.108826,632.942505 544.017700,640.407837 551.861755,646.014099
	C558.874390,651.026184 566.264404,654.932678 574.980652,656.105225
	C577.843445,656.490356 579.862427,659.060303 578.745239,661.706604
	C578.067200,663.312744 574.966187,664.983276 573.111023,664.821411
	C563.944519,664.021790 555.869080,659.993042 548.405212,654.844299
	C533.447632,644.526245 525.138306,629.784424 521.285034,612.408997
	C520.194214,607.490479 520.072693,602.287109 520.052979,597.212341
	C519.942932,568.724731 519.935059,540.236023 520.090027,511.748810
	C520.107483,508.535675 519.373352,504.153229 524.975464,503.957611
	C528.001709,503.851929 529.099792,504.965881 529.049072,508.011383
	C528.907654,516.505493 528.999939,525.003540 529.000000,534.000000
z"/>
<path fill="#FFFFFF" opacity="1.000000" stroke="none"
	d="
M764.017944,589.087769
	C767.032349,581.096008 770.021973,573.501587 773.027466,565.913452
	C777.034363,555.797058 781.036377,545.678772 785.072388,535.573975
	C789.038391,525.644348 792.856018,515.646179 797.227295,505.897156
	C797.915100,504.363068 801.189819,503.988892 803.268433,503.078430
	C804.138184,505.171692 806.217896,507.674957 805.671265,509.288269
	C803.108032,516.852905 799.804321,524.165466 796.798035,531.581421
	C789.228516,550.254028 781.636536,568.917725 774.134521,587.617432
	C770.327148,597.107910 766.653320,606.652649 762.993591,616.201416
	C758.248169,628.583252 753.611633,641.006958 748.849487,653.382324
	C747.642395,656.519470 746.549133,659.842224 744.610596,662.501770
	C743.488342,664.041443 740.668945,665.368713 738.815491,665.141602
	C734.736877,664.641846 735.455200,660.890259 736.323120,658.483337
	C738.871643,651.416443 742.017029,644.567261 744.817139,637.588074
	C748.924316,627.351318 752.918335,617.069214 756.993164,606.819336
	C759.295105,601.028748 761.662354,595.264221 764.017944,589.087769
z"/>
<path fill="#FFFFFF" opacity="1.000000" stroke="none"
	d="
M427.018066,409.098022
	C420.999451,424.825806 415.129456,440.206909 408.827118,455.408783
	C408.065186,457.246674 404.838928,459.371521 402.978668,459.180756
	C398.739105,458.745880 399.423401,454.851013 400.424042,452.200409
	C404.657776,440.985443 409.259125,429.909851 413.662292,418.758087
	C419.471893,404.044434 425.192596,389.295654 431.004578,374.582947
	C437.986603,356.908386 445.024719,339.256012 452.037872,321.593781
	C454.690491,314.913239 457.637909,308.329071 459.869781,301.510773
	C461.010834,298.024933 463.226166,296.429596 466.114685,297.208374
	C469.315308,298.071381 469.669952,301.028259 468.463013,304.113098
	C465.262329,312.293793 462.172455,320.517792 459.025574,328.719604
	C453.311188,343.613098 447.649902,358.527435 441.847198,373.386475
	C437.433624,384.688354 432.844055,395.921692 428.294556,407.170044
	C428.058655,407.753326 427.463684,408.191406 427.018066,409.098022
z"/>
<path fill="#FFFFFF" opacity="1.000000" stroke="none"
	d="
M679.235657,441.388550
	C677.344482,446.559235 676.041504,451.579987 673.765991,456.112457
	C672.937256,457.763092 669.732300,459.195068 667.716431,459.067566
	C663.807129,458.820404 664.586304,455.081299 665.191895,452.837097
	C666.392639,448.387787 668.348938,444.140442 670.021912,439.820862
	C674.066101,429.378876 678.028198,418.903595 682.207825,408.515930
	C686.687988,397.381256 691.484497,386.373810 695.952942,375.234619
	C702.384033,359.202820 708.636963,343.099579 714.979004,327.031982
	C718.314758,318.580688 721.629944,310.120697 725.055176,301.705627
	C726.295227,298.659027 728.493469,295.498352 731.895081,297.350098
	C733.380432,298.158722 734.087952,302.781006 733.290955,305.005890
	C728.498962,318.382690 723.218567,331.586334 718.003418,344.809235
	C711.719116,360.743073 705.363403,376.648926 698.989746,392.547272
	C692.503784,408.725708 685.958374,424.880341 679.235657,441.388550
z"/>
<path fill="#FFFFFF" opacity="1.000000" stroke="none"
	d="
M184.000000,542.086304
	C184.505569,522.046753 198.031082,508.261810 215.685135,505.259338
	C226.015533,503.502411 236.784210,504.148254 247.359009,504.042877
	C263.689331,503.880188 280.022430,503.996521 296.354370,504.004395
	C298.481628,504.005402 300.954773,503.522980 300.994934,506.890381
	C301.024567,509.377502 301.536438,512.090271 297.577576,512.109436
	C295.843964,512.117798 294.113739,512.954651 292.380737,512.959351
	C269.882874,513.020752 247.383240,512.842896 224.887268,513.058350
	C211.162415,513.189758 197.639603,521.208740 193.764236,535.845093
	C191.293030,545.178101 193.102264,554.185547 198.034851,562.508667
	C198.691757,563.617126 199.942108,564.602112 200.076813,565.743408
	C200.340820,567.980164 200.878693,571.521545 199.751862,572.312256
	C197.262695,574.059021 193.948212,573.567444 192.077896,570.458496
	C186.922379,561.888794 182.752319,553.002197 184.000000,542.086304
z"/>
<path fill="#FFFFFF" opacity="1.000000" stroke="none"
	d="
M264.992950,580.000000
	C269.487762,580.000122 273.528992,579.655212 277.458801,580.166382
	C279.080750,580.377380 281.231140,582.196228 281.687836,583.719482
	C281.996887,584.750183 280.057037,587.083618 278.603577,587.852600
	C276.853516,588.778625 274.554199,588.946289 272.490448,588.955566
	C255.173416,589.033630 237.855560,589.063538 220.538605,588.976379
	C210.046906,588.923462 203.143265,594.618164 197.700577,602.775513
	C193.967438,608.370667 192.628052,614.442627 192.872864,621.273743
	C193.319870,633.746216 193.158920,646.250122 192.845596,658.730835
	C192.792557,660.843262 191.165207,664.050964 189.458298,664.732788
	C186.583679,665.881287 183.987946,664.328796 183.992493,660.470642
	C184.011383,644.485352 183.486191,628.476257 184.224396,612.525146
	C184.576614,604.914673 188.731506,598.329956 193.919678,592.294739
	C199.129089,586.234741 205.357315,582.724304 212.771088,580.742249
	C214.315689,580.329407 215.945831,580.036621 217.537704,580.031372
	C233.189819,579.979431 248.842163,580.000000 264.992950,580.000000
z"/>
<path fill="#0000" opacity="1.000000" stroke="none"
	d="
M812.447083,526.157349
	C814.212524,528.809753 815.892090,531.209839 816.935608,533.860413
	C822.379395,547.688477 827.604309,561.602600 833.021912,575.441223
	C836.168945,583.479858 839.592163,591.410034 842.791382,599.428833
	C850.548340,618.871216 858.310242,638.312378 865.886047,657.825439
	C866.799255,660.177490 867.844299,663.251770 864.377686,665.005432
	C860.274841,667.081116 858.343140,664.394470 857.097351,661.299316
	C851.315857,646.935364 845.700256,632.504639 840.025757,618.097595
	C834.929199,605.157837 829.842041,592.214294 824.734924,579.278687
	C818.634705,563.827454 812.496033,548.391418 806.421692,532.929993
	C804.713562,528.582092 806.720398,526.194092 812.447083,526.157349
z"/>
<path fill="#FFFFFF" opacity="1.000000" stroke="none"
	d="
M505.995239,392.936646
	C513.350952,411.614441 520.662842,429.893402 527.996826,448.163483
	C528.585449,449.629883 529.550293,450.976105 529.947815,452.481781
	C530.710999,455.372375 530.983215,458.747467 527.140015,459.143616
	C525.359314,459.327148 522.409241,457.497620 521.570984,455.799774
	C518.673645,449.931732 516.439514,443.733093 514.012268,437.636719
	C508.979095,424.995209 503.919250,412.363678 498.991516,399.681000
	C494.187561,387.317047 489.634491,374.855194 484.780243,362.511475
	C481.558044,354.317810 477.953278,346.275360 474.611908,338.127502
	C472.974243,334.134003 471.130005,330.144592 470.226471,325.970001
	C469.860016,324.276855 471.237457,321.232544 472.735687,320.343079
	C474.859650,319.082123 477.315674,319.835175 478.503387,322.917633
	C483.565796,336.055389 488.793610,349.129639 493.994110,362.213898
	C497.303711,370.540741 500.681915,378.840302 504.004395,387.162048
	C504.710724,388.931091 505.309052,390.743256 505.995239,392.936646
z"/>
<path fill="#FFFFFF" opacity="1.000000" stroke="none"
	d="
M760.254395,365.650116
	C766.985046,382.485077 773.454712,399.002106 780.013000,415.483887
	C784.615784,427.051178 789.350220,438.566010 793.997131,450.115845
	C794.700317,451.863464 796.073914,453.910248 795.649841,455.393280
	C795.159912,457.106659 793.189148,459.203430 791.547180,459.523834
	C790.246338,459.777618 787.698914,457.945465 787.034424,456.449158
	C783.145020,447.691193 779.598877,438.778717 776.026855,429.882294
	C768.997253,412.374756 761.977539,394.862946 755.045776,377.316528
	C748.351196,360.370392 741.671753,343.415985 735.312317,326.343536
	C734.732910,324.788055 735.951660,321.511505 737.371643,320.523163
	C739.235779,319.225739 741.982605,319.216125 743.265503,322.555786
	C745.664062,328.799805 748.513550,334.869751 750.951721,341.099701
	C754.093323,349.127136 757.014954,357.240662 760.254395,365.650116
z"/>
<path fill="#FFFFFF" opacity="1.000000" stroke="none"
	d="
M708.237427,504.733368
	C709.170532,510.590759 708.064331,511.987854 702.911133,511.994690
	C690.591675,512.011047 678.270630,511.894928 665.953796,512.075500
	C662.959290,512.119446 661.416748,511.314240 660.974487,508.299316
	C660.455078,504.758606 662.715759,503.712830 665.417236,503.039703
	C666.201721,502.844208 667.074585,503.000458 667.906982,503.000427
	C679.227600,502.999786 690.549011,502.930206 701.867981,503.064606
	C703.896973,503.088715 705.915955,503.956360 708.237427,504.733368
z"/>
<path fill="#FFFFFF" opacity="1.000000" stroke="none"
	d="
M445.134186,503.000000
	C455.104706,503.000000 464.593933,502.999939 474.083160,503.000061
	C475.082031,503.000092 476.230713,502.680481 477.050873,503.063660
	C479.263824,504.097565 483.303009,502.928040 482.954224,507.287933
	C482.646881,511.129425 480.320557,512.167664 476.528900,512.091125
	C464.380981,511.845947 452.224976,512.002197 440.072113,511.998169
	C437.606323,511.997345 435.066040,512.556152 434.907166,508.548950
	C434.748322,504.541656 436.894104,503.360535 440.160614,503.026703
	C441.643433,502.875092 443.154602,503.000336 445.134186,503.000000
z"/>
</svg>